<svg xmlns="http://www.w3.org/2000/svg" viewBox="0 0 266.88 47.5"><defs><style>.cls-1{fill:#cbf7e4;}</style></defs><g id="Layer_2" data-name="Layer 2"><g id="Layer_1-2" data-name="Layer 1"><path class="cls-1" d="M1.74,47.5A1.67,1.67,0,0,1,.5,47,1.7,1.7,0,0,1,0,45.76V2.68A1.71,1.71,0,0,1,1.74.94h9.45a1.76,1.76,0,0,1,1.21.5,1.66,1.66,0,0,1,.53,1.24V45.76A1.65,1.65,0,0,1,12.4,47a1.72,1.72,0,0,1-1.21.5Z"/><path class="cls-1" d="M20.64,39.2a1.9,1.9,0,0,1-1.31-.51A1.14,1.14,0,0,1,19,37.45L26.6,8.91a3.1,3.1,0,0,1,.63-1.24,1.42,1.42,0,0,1,1.11-.5l7.91.07a1.66,1.66,0,0,1,1.3.67A1.55,1.55,0,0,1,38,9.25l-6.5,28.2A1.61,1.61,0,0,1,31,38.69a1.69,1.69,0,0,1-1.2.51ZM42,11.66l-20.84.07a1.78,1.78,0,0,1-1.27-.51A1.61,1.61,0,0,1,19.36,10V2.68a1.64,1.64,0,0,1,.54-1.24,1.82,1.82,0,0,1,1.27-.5H44a19.89,19.89,0,0,1,8.21,1.64A12.51,12.51,0,0,1,58,7.84a18.58,18.58,0,0,1,2.11,9.45V37.45a1.72,1.72,0,0,1-1.74,1.75H39.8a1.67,1.67,0,0,1-1.24-.51,1.64,1.64,0,0,1-.5-1.24V30.69a1.72,1.72,0,0,1,1.74-1.75h7.37v-11a8,8,0,0,0-.67-3.45,4.88,4.88,0,0,0-1.81-2.08A5,5,0,0,0,42,11.66Z"/><path class="cls-1" d="M68.67,39.2a1.74,1.74,0,0,1-1.74-1.75V2.68a1.68,1.68,0,0,1,.51-1.24,1.67,1.67,0,0,1,1.23-.5h10a1.72,1.72,0,0,1,1.2.5,1.64,1.64,0,0,1,.54,1.24V37.45a1.61,1.61,0,0,1-.54,1.24,1.69,1.69,0,0,1-1.2.51Z"/><path class="cls-1" d="M89.18,23.25a1.72,1.72,0,0,1-1.75-1.74V2.68a1.68,1.68,0,0,1,.51-1.24,1.68,1.68,0,0,1,1.24-.5h10a1.72,1.72,0,0,1,1.2.5,1.64,1.64,0,0,1,.54,1.24V21.51a1.64,1.64,0,0,1-.54,1.24,1.72,1.72,0,0,1-1.2.5Z"/><path class="cls-1" d="M107.6,10V0h23.65V10Z"/><path class="cls-1" d="M140.39,43a1.59,1.59,0,0,1-1.28-.43,1.66,1.66,0,0,1-.53-1.24v-6.9a1.63,1.63,0,0,1,.47-1.21,2.72,2.72,0,0,1,1.14-.67l14.94-3.21a16.76,16.76,0,0,0,5.59-2.08A6.25,6.25,0,0,0,163.3,24,15.49,15.49,0,0,0,164,19.1V2.61a1.58,1.58,0,0,1,.5-1.2,1.77,1.77,0,0,1,1.24-.47h9.45a1.71,1.71,0,0,1,1.24.5,1.67,1.67,0,0,1,.5,1.24V22.92a14.6,14.6,0,0,1-2.17,8,16.27,16.27,0,0,1-6.34,5.6,32.89,32.89,0,0,1-10.11,3.12ZM149,37.59l-9.44-34a7.26,7.26,0,0,0-.24-.81,1.61,1.61,0,0,1-.1-.53,1.32,1.32,0,0,1,.4-.94,1.28,1.28,0,0,1,.94-.4H151c.85,0,1.37.33,1.54,1l8,34.11Z"/><path class="cls-1" d="M202,39.87q-9.59,0-14.14-4.56t-4.56-12.26V2.68a1.68,1.68,0,0,1,.51-1.24,1.68,1.68,0,0,1,1.24-.5H202.5q7,0,11,2a12.49,12.49,0,0,1,5.86,5.66,21.87,21.87,0,0,1,2.08,8.61c0,.45.06,1.06.06,1.84v2.35c0,.78,0,1.39-.06,1.84a22,22,0,0,1-2.15,8.81,12.8,12.8,0,0,1-6,5.76Q209.13,39.88,202,39.87ZM202,29.08c2.77,0,4.63-.47,5.6-1.41s1.48-2.52,1.57-4.75c0-.45.07-1,.07-1.68v-2c0-.67,0-1.23-.07-1.68a7.19,7.19,0,0,0-1.64-4.79c-1-1-2.78-1.57-5.33-1.57h-7V22.78q0,3.34,1.84,4.82A7.73,7.73,0,0,0,202,29.08Z"/><path class="cls-1" d="M227.42,39.2a1.91,1.91,0,0,1-1.31-.51,1.12,1.12,0,0,1-.36-1.24l7.63-28.54A3.25,3.25,0,0,1,234,7.67a1.42,1.42,0,0,1,1.11-.5l7.9.07a1.68,1.68,0,0,1,1.31.67,1.54,1.54,0,0,1,.43,1.34l-6.49,28.2a1.61,1.61,0,0,1-.54,1.24,1.71,1.71,0,0,1-1.21.51Zm21.37-27.54L228,11.73a1.79,1.79,0,0,1-1.28-.51,1.63,1.63,0,0,1-.53-1.24V2.68a1.66,1.66,0,0,1,.53-1.24A1.82,1.82,0,0,1,228,.94H250.8A19.86,19.86,0,0,1,259,2.58a12.41,12.41,0,0,1,5.76,5.26,18.58,18.58,0,0,1,2.11,9.45V37.45a1.64,1.64,0,0,1-.5,1.24,1.67,1.67,0,0,1-1.24.51H246.58a1.72,1.72,0,0,1-1.74-1.75V30.69a1.72,1.72,0,0,1,1.74-1.75H254v-11a7.83,7.83,0,0,0-.67-3.45,4.82,4.82,0,0,0-1.81-2.08A5,5,0,0,0,248.79,11.66Z"/></g></g></svg>