<svg xmlns="http://www.w3.org/2000/svg" viewBox="0 0 272.65 45.76"><defs><style>.cls-1{fill:#cee7dc;}</style></defs><g id="Layer_2" data-name="Layer 2"><g id="Layer_1-2" data-name="Layer 1"><path class="cls-1" d="M4,9.51H0v-9H15.21V45.76H4Z"/><path class="cls-1" d="M41.07,37.45v-9a18.85,18.85,0,0,0,3.15.27c5.83,0,8.58-3.35,8.58-9.79,0-5.82-2.22-9.84-6.91-9.84a6.82,6.82,0,0,0-6.16,3.75c-2,3.41-2.68,8.51-3.82,17.69l-.87,7h-11c.74-8,2-16.28,3.42-24.45L20.57.47H33.16l2.89,4.82C39,1.61,42.75,0,47.57,0c9.65,0,16.21,6.23,16.21,18.36S57.35,37.92,45.36,37.92A16.94,16.94,0,0,1,41.07,37.45Z"/><path class="cls-1" d="M72.49,9.51h-4v-9H83.68V37.25H72.49Z"/><path class="cls-1" d="M94.07,9.51h-4v-9h15.07V24.59H94.07Z"/><path class="cls-1" d="M112.49,10V.06h23.65V10Z"/><path class="cls-1" d="M144.94,28.21h10.19L144.07.47h12l10.11,26.87a4.61,4.61,0,0,0,2.08-2.28c1.27-2.82,1.81-10.65,1.81-16.55v-8h11.39c0,1.27.07,2.48.07,5,0,3.55-.14,9-.61,13.2-1.4,12-7,18.62-22.11,18.62H144.94Z"/><path class="cls-1" d="M188.9,19.56V.47h19.29c10.92,0,18.23,6.83,18.23,18.16,0,11.72-7.71,19.56-19.17,19.56C196.4,38.19,188.9,31.16,188.9,19.56Zm26.53-.46c0-6-3.15-9.59-8-9.59H200v9.65c0,6,3,9.78,7.64,9.78S215.43,25,215.43,19.1Z"/><path class="cls-1" d="M249.93,37.45v-9a18.85,18.85,0,0,0,3.15.27c5.83,0,8.58-3.35,8.58-9.79,0-5.82-2.21-9.84-6.9-9.84a6.84,6.84,0,0,0-6.17,3.75c-2,3.41-2.68,8.51-3.82,17.69l-.87,7h-11c.74-8,2-16.28,3.42-24.45L229.43.47H242l2.88,4.82c3-3.68,6.7-5.29,11.52-5.29,9.65,0,16.22,6.23,16.22,18.36s-6.44,19.56-18.43,19.56A16.94,16.94,0,0,1,249.93,37.45Z"/></g></g></svg>